<svg xmlns="http://www.w3.org/2000/svg" width="126.508" height="40" viewBox="0 0 126.508 40">
  <g id="Groupe_211" data-name="Groupe 211" transform="translate(-37 -2441)">
    <g id="Groupe_92" data-name="Groupe 92" transform="translate(37 2441)">
      <g id="Groupe_91" data-name="Groupe 91">
        <g id="Groupe_90" data-name="Groupe 90">
          <g id="Groupe_89" data-name="Groupe 89">
            <path id="Tracé_105" data-name="Tracé 105" d="M116.978,0H9.535c-.367,0-.729,0-1.1,0-.306,0-.61.008-.919.013a13.155,13.155,0,0,0-2,.176,6.72,6.72,0,0,0-1.9.627A6.444,6.444,0,0,0,2,2,6.285,6.285,0,0,0,.819,3.618a6.625,6.625,0,0,0-.625,1.9,13.078,13.078,0,0,0-.179,2C.006,7.83,0,8.138,0,8.444V31.559c0,.31.006.611.015.921a13.056,13.056,0,0,0,.179,2,6.607,6.607,0,0,0,.625,1.905A6.233,6.233,0,0,0,2,38,6.3,6.3,0,0,0,3.616,39.18a6.7,6.7,0,0,0,1.9.63,13.285,13.285,0,0,0,2,.177c.309.007.613.011.919.011.366,0,.728,0,1.1,0H116.978c.36,0,.725,0,1.084,0,.305,0,.617,0,.922-.011a13.109,13.109,0,0,0,2-.177,6.781,6.781,0,0,0,1.908-.63A6.3,6.3,0,0,0,124.51,38a6.407,6.407,0,0,0,1.181-1.614,6.6,6.6,0,0,0,.619-1.905,13.587,13.587,0,0,0,.186-2c0-.31,0-.611,0-.921.008-.364.008-.725.008-1.094V9.536c0-.366,0-.729-.008-1.092,0-.306,0-.614,0-.921a13.612,13.612,0,0,0-.186-2,6.612,6.612,0,0,0-.619-1.9,6.46,6.46,0,0,0-2.8-2.8,6.806,6.806,0,0,0-1.908-.627,12.982,12.982,0,0,0-2-.176c-.305,0-.617-.011-.922-.013-.359,0-.724,0-1.084,0Z" fill="#a2a2a2"/>
            <path id="Tracé_106" data-name="Tracé 106" d="M8.445,39.125c-.3,0-.6,0-.9-.011a12.619,12.619,0,0,1-1.87-.163A5.865,5.865,0,0,1,4.015,38.4a5.374,5.374,0,0,1-1.4-1.016A5.329,5.329,0,0,1,1.6,35.99a5.752,5.752,0,0,1-.543-1.657,12.388,12.388,0,0,1-.166-1.875c-.007-.211-.015-.913-.015-.913V8.444s.009-.691.015-.894a12.35,12.35,0,0,1,.165-1.872A5.725,5.725,0,0,1,1.6,4.016a5.338,5.338,0,0,1,1.015-1.4A5.568,5.568,0,0,1,4.014,1.6a5.818,5.818,0,0,1,1.653-.544A12.65,12.65,0,0,1,7.543.887l.9-.012H118.057l.913.013a12.371,12.371,0,0,1,1.859.162A5.974,5.974,0,0,1,122.5,1.6a5.607,5.607,0,0,1,2.415,2.42,5.769,5.769,0,0,1,.535,1.649,13.1,13.1,0,0,1,.174,1.887c0,.283,0,.588,0,.89.008.375.008.732.008,1.092V30.465c0,.363,0,.718-.008,1.075,0,.325,0,.623,0,.93a12.836,12.836,0,0,1-.171,1.853,5.751,5.751,0,0,1-.54,1.67,5.479,5.479,0,0,1-1.016,1.386,5.4,5.4,0,0,1-1.4,1.022,5.842,5.842,0,0,1-1.668.55,12.483,12.483,0,0,1-1.869.163c-.293.007-.6.011-.9.011l-1.084,0Z"/>
          </g>
        </g>
      </g>
    </g>
    <g id="Groupe_97" data-name="Groupe 97" transform="translate(37 2441)">
      <g id="Groupe_96" data-name="Groupe 96">
        <g id="Groupe_95" data-name="Groupe 95">
          <g id="Groupe_94" data-name="Groupe 94">
            <path id="Tracé_107" data-name="Tracé 107" d="M24.772,20.3a4.948,4.948,0,0,1,2.356-4.152,5.064,5.064,0,0,0-3.991-2.158C21.458,13.815,19.83,15,18.974,15c-.872,0-2.189-.988-3.608-.958a5.313,5.313,0,0,0-4.473,2.727c-1.934,3.349-.492,8.27,1.361,10.977.927,1.325,2.01,2.805,3.428,2.753,1.387-.058,1.9-.885,3.579-.885s2.145.885,3.591.852c1.488-.025,2.426-1.332,3.321-2.67A10.956,10.956,0,0,0,27.691,24.7,4.781,4.781,0,0,1,24.772,20.3Z" fill="#fff"/>
            <path id="Tracé_108" data-name="Tracé 108" d="M22.04,12.211A4.874,4.874,0,0,0,23.155,8.72a4.959,4.959,0,0,0-3.208,1.66A4.638,4.638,0,0,0,18.8,13.741,4.1,4.1,0,0,0,22.04,12.211Z" fill="#fff"/>
          </g>
        </g>
      </g>
    </g>
    <g id="Groupe_99" data-name="Groupe 99" transform="translate(37 2441)">
      <g id="Groupe_98" data-name="Groupe 98">
        <path id="Tracé_109" data-name="Tracé 109" d="M35.655,14.7V9.578H33.778V8.735h4.677v.843H36.582V14.7Z" fill="#fff"/>
        <path id="Tracé_110" data-name="Tracé 110" d="M42.765,13.486a1.829,1.829,0,0,1-1.952,1.3,2.046,2.046,0,0,1-2.08-2.325,2.077,2.077,0,0,1,2.077-2.352c1.253,0,2.008.856,2.008,2.27v.31H39.639v.05a1.19,1.19,0,0,0,1.2,1.29,1.08,1.08,0,0,0,1.071-.546Zm-3.126-1.451h2.274a1.086,1.086,0,0,0-1.108-1.167A1.151,1.151,0,0,0,39.639,12.035Zm.636-2.589,1.038-1.423h1.042L41.193,9.446Z" fill="#fff"/>
        <path id="Tracé_111" data-name="Tracé 111" d="M44.053,8.441h.888V14.7h-.888Z" fill="#fff"/>
        <path id="Tracé_112" data-name="Tracé 112" d="M50.208,13.486a1.829,1.829,0,0,1-1.951,1.3,2.046,2.046,0,0,1-2.08-2.325,2.076,2.076,0,0,1,2.076-2.352c1.253,0,2.009.856,2.009,2.27v.31h-3.18v.05a1.19,1.19,0,0,0,1.2,1.29,1.081,1.081,0,0,0,1.072-.546Zm-3.126-1.451h2.274a1.086,1.086,0,0,0-1.108-1.167A1.152,1.152,0,0,0,47.082,12.035Zm.637-2.589,1.038-1.423H49.8L48.637,9.446Z" fill="#fff"/>
        <path id="Tracé_113" data-name="Tracé 113" d="M54.4,11.67a1,1,0,0,0-1.063-.764c-.744,0-1.2.57-1.2,1.53,0,.976.459,1.559,1.2,1.559a.979.979,0,0,0,1.063-.741h.865a1.763,1.763,0,0,1-1.923,1.535,2.068,2.068,0,0,1-2.114-2.353,2.053,2.053,0,0,1,2.109-2.324,1.778,1.778,0,0,1,1.928,1.558Z" fill="#fff"/>
        <path id="Tracé_114" data-name="Tracé 114" d="M56.447,8.441h.881v2.481h.07a1.386,1.386,0,0,1,1.373-.806,1.483,1.483,0,0,1,1.551,1.678V14.7h-.889V12.014c0-.72-.335-1.084-.963-1.084a1.052,1.052,0,0,0-1.134,1.142V14.7h-.889Z" fill="#fff"/>
        <path id="Tracé_115" data-name="Tracé 115" d="M61.439,13.428c0-.81.6-1.278,1.675-1.344l1.22-.07v-.389c0-.476-.314-.744-.922-.744-.5,0-.84.182-.938.5h-.861c.091-.773.819-1.269,1.84-1.269,1.129,0,1.765.562,1.765,1.513V14.7h-.855v-.633h-.07a1.515,1.515,0,0,1-1.353.707A1.36,1.36,0,0,1,61.439,13.428Zm2.9-.385v-.376l-1.1.07c-.62.042-.9.253-.9.65s.352.641.835.641A1.061,1.061,0,0,0,64.334,13.043Z" fill="#fff"/>
        <path id="Tracé_116" data-name="Tracé 116" d="M66.61,10.2h.855v.69h.067a1.222,1.222,0,0,1,1.216-.765,1.865,1.865,0,0,1,.4.037v.877a2.423,2.423,0,0,0-.5-.054A1.055,1.055,0,0,0,67.5,12.043V14.7H66.61Z" fill="#fff"/>
        <path id="Tracé_117" data-name="Tracé 117" d="M69.961,15.152h.91c.075.327.451.538,1.05.538.741,0,1.179-.352,1.179-.947v-.864h-.066a1.515,1.515,0,0,1-1.39.756c-1.149,0-1.86-.888-1.86-2.237,0-1.373.718-2.274,1.869-2.274a1.56,1.56,0,0,1,1.414.794h.07V10.2h.852v4.54c0,1.03-.807,1.683-2.08,1.683C70.784,16.422,70.056,15.917,69.961,15.152Zm3.156-2.758c0-.9-.464-1.472-1.221-1.472S70.7,11.5,70.7,12.394s.429,1.472,1.194,1.472S73.117,13.3,73.117,12.394Z" fill="#fff"/>
        <path id="Tracé_118" data-name="Tracé 118" d="M79.212,13.486a1.828,1.828,0,0,1-1.951,1.3,2.046,2.046,0,0,1-2.08-2.325,2.077,2.077,0,0,1,2.076-2.352c1.253,0,2.009.856,2.009,2.27v.31h-3.18v.05a1.191,1.191,0,0,0,1.2,1.29,1.08,1.08,0,0,0,1.071-.546Zm-3.126-1.451h2.275a1.087,1.087,0,0,0-1.109-1.167A1.152,1.152,0,0,0,76.086,12.035Z" fill="#fff"/>
        <path id="Tracé_119" data-name="Tracé 119" d="M80.459,10.2h.856v.69h.066a1.222,1.222,0,0,1,1.216-.765,1.868,1.868,0,0,1,.4.037v.877a2.432,2.432,0,0,0-.5-.054,1.056,1.056,0,0,0-1.15,1.059V14.7h-.889Z" fill="#fff"/>
        <path id="Tracé_120" data-name="Tracé 120" d="M86.2,12.448c0-1.423.731-2.324,1.869-2.324a1.483,1.483,0,0,1,1.381.79h.066V8.441H90.4V14.7h-.852V13.99h-.07a1.564,1.564,0,0,1-1.414.786C86.919,14.776,86.2,13.875,86.2,12.448Zm.918,0c0,.955.45,1.53,1.2,1.53s1.212-.583,1.212-1.526-.468-1.53-1.212-1.53S87.114,11.5,87.114,12.448Z" fill="#fff"/>
        <path id="Tracé_121" data-name="Tracé 121" d="M91.6,13.428c0-.81.6-1.278,1.675-1.344l1.22-.07v-.389c0-.476-.315-.744-.922-.744-.5,0-.84.182-.939.5h-.86c.091-.773.818-1.269,1.84-1.269,1.129,0,1.765.562,1.765,1.513V14.7h-.855v-.633h-.07a1.515,1.515,0,0,1-1.353.707A1.36,1.36,0,0,1,91.6,13.428Zm2.9-.385v-.376l-1.1.07c-.62.042-.9.253-.9.65s.351.641.835.641A1.062,1.062,0,0,0,94.5,13.043Z" fill="#fff"/>
        <path id="Tracé_122" data-name="Tracé 122" d="M96.773,10.2h.855v.715h.067a1.349,1.349,0,0,1,1.344-.8,1.464,1.464,0,0,1,1.558,1.675V14.7h-.888V12.01c0-.724-.315-1.084-.972-1.084a1.033,1.033,0,0,0-1.075,1.141V14.7h-.889Z" fill="#fff"/>
        <path id="Tracé_123" data-name="Tracé 123" d="M103.618,10.112c1.012,0,1.674.471,1.761,1.265h-.852c-.082-.331-.4-.542-.909-.542s-.873.236-.873.587c0,.269.227.439.715.551l.749.173c.856.2,1.257.567,1.257,1.229,0,.847-.79,1.414-1.865,1.414s-1.769-.484-1.849-1.282h.89a.914.914,0,0,0,.98.562c.553,0,.947-.248.947-.608,0-.269-.211-.442-.662-.55l-.785-.182c-.857-.2-1.253-.587-1.253-1.257C101.869,10.674,102.6,10.112,103.618,10.112Z" fill="#fff"/>
      </g>
    </g>
    <path id="Tracé_124" data-name="Tracé 124" d="M35.2,18.067h1.86V30.485H35.2Z" transform="translate(37 2441)" fill="#fff"/>
    <path id="Tracé_125" data-name="Tracé 125" d="M39.3,22.611l1.015-4.544H42.12l-1.23,4.544Z" transform="translate(37 2441)" fill="#fff"/>
    <path id="Tracé_126" data-name="Tracé 126" d="M49.146,27.129H44.412l-1.137,3.356h-2l4.483-12.418h2.083L52.32,30.485H50.281ZM44.9,25.58h3.752l-1.849-5.448h-.052Z" transform="translate(37 2441)" fill="#fff"/>
    <path id="Tracé_127" data-name="Tracé 127" d="M62,25.959c0,2.813-1.506,4.621-3.778,4.621A3.069,3.069,0,0,1,55.376,29h-.043V33.48H53.475V21.431h1.8v1.506h.035a3.21,3.21,0,0,1,2.882-1.6C60.488,21.336,62,23.153,62,25.959Zm-1.91,0c0-1.834-.947-3.039-2.393-3.039-1.42,0-2.375,1.231-2.375,3.039,0,1.824.955,3.046,2.375,3.046C59.146,29,60.093,27.809,60.093,25.959Z" transform="translate(37 2441)" fill="#fff"/>
    <path id="Tracé_128" data-name="Tracé 128" d="M71.967,25.959c0,2.813-1.506,4.621-3.778,4.621A3.071,3.071,0,0,1,65.34,29H65.3V33.48H63.439V21.431h1.8v1.506h.034a3.212,3.212,0,0,1,2.883-1.6C70.453,21.336,71.967,23.153,71.967,25.959Zm-1.91,0c0-1.834-.947-3.039-2.392-3.039-1.42,0-2.375,1.231-2.375,3.039,0,1.824.955,3.046,2.375,3.046C69.11,29,70.057,27.809,70.057,25.959Z" transform="translate(37 2441)" fill="#fff"/>
    <path id="Tracé_129" data-name="Tracé 129" d="M78.553,27.025c.138,1.232,1.334,2.04,2.969,2.04,1.566,0,2.693-.808,2.693-1.919,0-.963-.679-1.541-2.289-1.936l-1.609-.388c-2.28-.551-3.339-1.617-3.339-3.348,0-2.142,1.867-3.614,4.519-3.614,2.624,0,4.422,1.472,4.483,3.614H84.1c-.112-1.239-1.137-1.987-2.634-1.987s-2.521.757-2.521,1.858c0,.878.654,1.4,2.255,1.79l1.368.336c2.548.6,3.606,1.627,3.606,3.443,0,2.323-1.85,3.778-4.794,3.778-2.754,0-4.613-1.421-4.733-3.667Z" transform="translate(37 2441)" fill="#fff"/>
    <path id="Tracé_130" data-name="Tracé 130" d="M90.189,19.289v2.142h1.722V22.9H90.189V27.9c0,.775.345,1.136,1.1,1.136a5.7,5.7,0,0,0,.611-.043v1.463a5.083,5.083,0,0,1-1.032.086c-1.833,0-2.548-.688-2.548-2.444V22.9H87V21.431h1.317V19.289Z" transform="translate(37 2441)" fill="#fff"/>
    <path id="Tracé_131" data-name="Tracé 131" d="M92.907,25.959c0-2.849,1.677-4.639,4.294-4.639s4.3,1.79,4.3,4.639S99.834,30.6,97.2,30.6,92.907,28.815,92.907,25.959Zm6.695,0c0-1.955-.895-3.108-2.4-3.108s-2.4,1.162-2.4,3.108c0,1.962.9,3.106,2.4,3.106S99.6,27.921,99.6,25.959Z" transform="translate(37 2441)" fill="#fff"/>
    <path id="Tracé_132" data-name="Tracé 132" d="M103.028,21.431H104.8v1.541h.043a2.161,2.161,0,0,1,2.178-1.636,2.874,2.874,0,0,1,.637.07v1.738a2.591,2.591,0,0,0-.835-.112,1.872,1.872,0,0,0-1.937,2.083v5.37h-1.858Z" transform="translate(37 2441)" fill="#fff"/>
    <path id="Tracé_133" data-name="Tracé 133" d="M116.226,27.826c-.25,1.644-1.851,2.772-3.9,2.772-2.634,0-4.269-1.765-4.269-4.6s1.644-4.682,4.191-4.682c2.5,0,4.08,1.721,4.08,4.466v.637h-6.4v.112a2.359,2.359,0,0,0,2.436,2.565,2.048,2.048,0,0,0,2.09-1.274Zm-6.282-2.7h4.526a2.177,2.177,0,0,0-2.22-2.3A2.292,2.292,0,0,0,109.944,25.124Z" transform="translate(37 2441)" fill="#fff"/>
  </g>
</svg>
