<svg xmlns="http://www.w3.org/2000/svg" width="21" height="10" viewBox="0 0 21 10">
  <g id="Groupe_210" data-name="Groupe 210" transform="translate(-349 -5)">
    <g id="Rectangle_19" data-name="Rectangle 19" transform="translate(369 8)" fill="#fff" stroke="#000" stroke-width="0.5">
      <path d="M0,0H0A1,1,0,0,1,1,1V3A1,1,0,0,1,0,4H0A0,0,0,0,1,0,4V0A0,0,0,0,1,0,0Z" stroke="none"/>
      <path d="M.375.25h0A.375.375,0,0,1,.75.625v2.75a.375.375,0,0,1-.375.375h0A.125.125,0,0,1,.25,3.625V.375A.125.125,0,0,1,.375.25Z" fill="none"/>
    </g>
    <g id="Rectangle_18" data-name="Rectangle 18" transform="translate(349 5)" fill="#87ff87" stroke="#000" stroke-width="0.5">
      <rect width="20" height="10" rx="2" stroke="none"/>
      <rect x="0.25" y="0.25" width="19.5" height="9.5" rx="1.75" fill="none"/>
    </g>
  </g>
</svg>
