<svg xmlns="http://www.w3.org/2000/svg" xmlns:xlink="http://www.w3.org/1999/xlink" width="135" height="40" viewBox="0 0 135 40">
  <defs>
    <linearGradient id="linear-gradient" x1="0.915" y1="6.614" x2="-0.383" y2="5.945" gradientUnits="objectBoundingBox">
      <stop offset="0" stop-color="#00a0ff"/>
      <stop offset="0.007" stop-color="#00a1ff"/>
      <stop offset="0.26" stop-color="#00beff"/>
      <stop offset="0.512" stop-color="#00d2ff"/>
      <stop offset="0.76" stop-color="#00dfff"/>
      <stop offset="1" stop-color="#00e3ff"/>
    </linearGradient>
    <linearGradient id="linear-gradient-2" x1="1.076" y1="17.098" x2="-1.305" y2="17.098" gradientUnits="objectBoundingBox">
      <stop offset="0" stop-color="#ffe000"/>
      <stop offset="0.409" stop-color="#ffbd00"/>
      <stop offset="0.775" stop-color="orange"/>
      <stop offset="1" stop-color="#ff9c00"/>
    </linearGradient>
    <linearGradient id="linear-gradient-3" x1="0.862" y1="10.863" x2="-0.501" y2="9.093" gradientUnits="objectBoundingBox">
      <stop offset="0" stop-color="#ff3a44"/>
      <stop offset="1" stop-color="#c31162"/>
    </linearGradient>
    <linearGradient id="linear-gradient-4" x1="-0.188" y1="13.583" x2="0.421" y2="12.793" gradientUnits="objectBoundingBox">
      <stop offset="0" stop-color="#32a071"/>
      <stop offset="0.068" stop-color="#2da771"/>
      <stop offset="0.476" stop-color="#15cf74"/>
      <stop offset="0.801" stop-color="#06e775"/>
      <stop offset="1" stop-color="#00f076"/>
    </linearGradient>
  </defs>
  <g id="Groupe_212" data-name="Groupe 212" transform="translate(-204 -2441)">
    <g id="Groupe_109" data-name="Groupe 109" transform="translate(194 2431)">
      <g id="Groupe_107" data-name="Groupe 107">
        <rect id="Rectangle_72" data-name="Rectangle 72" width="135" height="40" rx="5" transform="translate(10 10)"/>
        <g id="Groupe_104" data-name="Groupe 104">
          <g id="Groupe_103" data-name="Groupe 103">
            <path id="Tracé_134" data-name="Tracé 134" d="M140,10.8a4.2,4.2,0,0,1,4.2,4.2V45a4.2,4.2,0,0,1-4.2,4.2H15A4.2,4.2,0,0,1,10.8,45V15A4.2,4.2,0,0,1,15,10.8H140m0-.8H15a5.015,5.015,0,0,0-5,5V45a5.015,5.015,0,0,0,5,5H140a5.015,5.015,0,0,0,5-5V15a5.015,5.015,0,0,0-5-5Z" fill="#a6a6a6"/>
          </g>
        </g>
        <path id="Tracé_135" data-name="Tracé 135" d="M78.136,31.752A4.253,4.253,0,1,0,82.4,36.005,4.192,4.192,0,0,0,78.136,31.752Zm0,6.83a2.584,2.584,0,1,1,2.4-2.577A2.46,2.46,0,0,1,78.136,38.582Zm-9.313-6.83a4.253,4.253,0,1,0,4.269,4.253A4.192,4.192,0,0,0,68.823,31.752Zm0,6.83a2.584,2.584,0,1,1,2.4-2.577A2.46,2.46,0,0,1,68.823,38.582ZM57.744,33.057v1.8h4.317a3.765,3.765,0,0,1-.982,2.271,4.42,4.42,0,0,1-3.335,1.321,4.8,4.8,0,0,1,0-9.6A4.6,4.6,0,0,1,61,30.141l1.273-1.273a6.3,6.3,0,0,0-4.527-1.821,6.606,6.606,0,1,0,0,13.211A6.036,6.036,0,0,0,62.351,38.4a5.962,5.962,0,0,0,1.563-4.221,5.829,5.829,0,0,0-.1-1.127Zm45.308,1.4a3.953,3.953,0,0,0-3.641-2.706A4.041,4.041,0,0,0,95.4,36.005a4.162,4.162,0,0,0,4.221,4.253,4.23,4.23,0,0,0,3.544-1.885l-1.45-.967a2.43,2.43,0,0,1-2.094,1.176,2.165,2.165,0,0,1-2.063-1.288l5.687-2.353Zm-5.8,1.418A2.333,2.333,0,0,1,99.475,33.4a1.645,1.645,0,0,1,1.579.9ZM92.629,40H94.5V27.5H92.629Zm-3.062-7.3H89.5a2.948,2.948,0,0,0-2.239-.95,4.257,4.257,0,0,0,0,8.506,2.9,2.9,0,0,0,2.239-.967h.064V39.9c0,1.627-.869,2.5-2.271,2.5a2.354,2.354,0,0,1-2.143-1.515l-1.627.677a4.053,4.053,0,0,0,3.77,2.513c2.191,0,4.044-1.289,4.044-4.43V32.009H89.567Zm-2.142,5.88a2.587,2.587,0,0,1,0-5.155A2.4,2.4,0,0,1,89.7,36.021,2.376,2.376,0,0,1,87.425,38.582ZM111.806,27.5h-4.471V40H109.2V35.264h2.606a3.888,3.888,0,1,0,0-7.765Zm.048,6.025H109.2V29.239h2.654a2.143,2.143,0,1,1,0,4.285Zm11.532-1.795a3.505,3.505,0,0,0-3.33,1.913l1.657.692a1.768,1.768,0,0,1,1.705-.917,1.8,1.8,0,0,1,1.962,1.609v.128a4.127,4.127,0,0,0-1.946-.482c-1.785,0-3.6.981-3.6,2.814a2.889,2.889,0,0,0,3.1,2.751,2.633,2.633,0,0,0,2.381-1.223h.064v.965h1.8V35.186C127.181,32.967,125.525,31.729,123.386,31.729Zm-.225,6.851c-.612,0-1.464-.305-1.464-1.061,0-.965,1.061-1.335,1.978-1.335a3.329,3.329,0,0,1,1.7.418A2.262,2.262,0,0,1,123.161,38.58ZM133.743,32l-2.139,5.42h-.064L129.32,32h-2.01l3.329,7.575-1.9,4.214h1.946L135.818,32Zm-16.807,8H118.8V27.5h-1.866Z" fill="#fff"/>
        <g id="Groupe_106" data-name="Groupe 106">
          <path id="Tracé_136" data-name="Tracé 136" d="M20.435,17.538a2.007,2.007,0,0,0-.462,1.405V41.059a2.005,2.005,0,0,0,.462,1.405l.074.072L32.9,30.147v-.292L20.509,17.465Z" fill="url(#linear-gradient)"/>
          <path id="Tracé_137" data-name="Tracé 137" d="M37.028,34.279,32.9,30.147v-.292l4.131-4.131.093.054,4.893,2.78c1.4.794,1.4,2.093,0,2.887l-4.893,2.78Z" fill="url(#linear-gradient-2)"/>
          <path id="Tracé_138" data-name="Tracé 138" d="M37.122,34.225,32.9,30,20.435,42.464a1.627,1.627,0,0,0,2.079.061l14.608-8.3" fill="url(#linear-gradient-3)"/>
          <path id="Tracé_139" data-name="Tracé 139" d="M37.122,25.777l-14.608-8.3a1.627,1.627,0,0,0-2.079.061L32.9,30Z" fill="url(#linear-gradient-4)"/>
          <g id="Groupe_105" data-name="Groupe 105">
            <path id="Tracé_140" data-name="Tracé 140" d="M37.029,34.132,22.514,42.379a1.665,1.665,0,0,1-2,.011h0l-.075.074h0l.074.073h0a1.665,1.665,0,0,0,2-.011l14.608-8.3Z" opacity="0.2" style="isolation: isolate"/>
            <path id="Tracé_141" data-name="Tracé 141" d="M20.435,42.318a2.005,2.005,0,0,1-.462-1.405v.147a2,2,0,0,0,.462,1.4l.075-.074Z" opacity="0.12" style="isolation: isolate"/>
          </g>
          <path id="Tracé_142" data-name="Tracé 142" d="M42.015,31.3l-4.986,2.833.093.093,4.893-2.78A1.755,1.755,0,0,0,43.063,30h0A1.861,1.861,0,0,1,42.015,31.3Z" opacity="0.12" style="isolation: isolate"/>
          <path id="Tracé_143" data-name="Tracé 143" d="M22.514,17.623l19.5,11.08A1.861,1.861,0,0,1,43.063,30h0a1.753,1.753,0,0,0-1.048-1.444l-19.5-11.08c-1.4-.794-2.541-.134-2.541,1.466v.147C19.973,17.489,21.116,16.829,22.514,17.623Z" fill="#fff" opacity="0.25" style="isolation: isolate"/>
        </g>
      </g>
      <g id="Groupe_108" data-name="Groupe 108">
        <path id="Tracé_144" data-name="Tracé 144" d="M51.278,23V17h1.835a2.982,2.982,0,0,1,2.213.834A2.937,2.937,0,0,1,56.155,20a2.939,2.939,0,0,1-.829,2.166A2.982,2.982,0,0,1,53.113,23Zm.771-.737h1.064a2.266,2.266,0,1,0,0-4.526H52.049Z" fill="#fff" stroke="#fff" stroke-miterlimit="10" stroke-width="0.2"/>
        <path id="Tracé_145" data-name="Tracé 145" d="M57.237,23V17h.771v6Z" fill="#fff" stroke="#fff" stroke-miterlimit="10" stroke-width="0.2"/>
        <path id="Tracé_146" data-name="Tracé 146" d="M61.074,23.134a2.236,2.236,0,0,1-1.277-.427,1.97,1.97,0,0,1-.817-1.2l.7-.284a1.611,1.611,0,0,0,.514.833,1.3,1.3,0,0,0,.876.339,1.406,1.406,0,0,0,.86-.263.846.846,0,0,0,.355-.717.919.919,0,0,0-.355-.775,3.7,3.7,0,0,0-1.127-.507,2.994,2.994,0,0,1-1.207-.65,1.354,1.354,0,0,1-.411-1.018,1.486,1.486,0,0,1,.511-1.122,1.871,1.871,0,0,1,1.332-.478,1.931,1.931,0,0,1,1.241.381,1.77,1.77,0,0,1,.62.834l-.7.293a1.044,1.044,0,0,0-.374-.528,1.311,1.311,0,0,0-1.525,0,.753.753,0,0,0-.314.615.7.7,0,0,0,.289.566,2.785,2.785,0,0,0,.85.415,7.1,7.1,0,0,1,.742.277,3.356,3.356,0,0,1,.6.356,1.414,1.414,0,0,1,.461.553,1.794,1.794,0,0,1,.155.766,1.655,1.655,0,0,1-.179.78,1.486,1.486,0,0,1-.479.545,2.41,2.41,0,0,1-1.345.41Z" fill="#fff" stroke="#fff" stroke-miterlimit="10" stroke-width="0.2"/>
        <path id="Tracé_147" data-name="Tracé 147" d="M64.954,23h-.77V17h2.045a1.9,1.9,0,0,1,1.319.507,1.745,1.745,0,0,1,0,2.556,1.9,1.9,0,0,1-1.319.507H64.954Zm0-3.168h1.291a.994.994,0,0,0,.779-.326,1.032,1.032,0,0,0,0-1.441.992.992,0,0,0-.779-.328H64.954Z" fill="#fff" stroke="#fff" stroke-miterlimit="10" stroke-width="0.2"/>
        <path id="Tracé_148" data-name="Tracé 148" d="M73.983,22.225a3.116,3.116,0,0,1-4.4,0,3.242,3.242,0,0,1,0-4.45,3.107,3.107,0,0,1,4.4,0,3.233,3.233,0,0,1,0,4.446Zm-3.83-.5a2.308,2.308,0,0,0,3.26,0,2.556,2.556,0,0,0,0-3.444,2.308,2.308,0,0,0-3.26,0,2.559,2.559,0,0,0,0,3.444Z" fill="#fff" stroke="#fff" stroke-miterlimit="10" stroke-width="0.2"/>
        <path id="Tracé_149" data-name="Tracé 149" d="M75.949,23V17h.939L79.8,21.667h.033L79.8,20.511V17h.771v6h-.8L76.72,18.106h-.034l.034,1.157V23Z" fill="#fff" stroke="#fff" stroke-miterlimit="10" stroke-width="0.2"/>
        <path id="Tracé_150" data-name="Tracé 150" d="M81.949,23V17h.771v6Z" fill="#fff" stroke="#fff" stroke-miterlimit="10" stroke-width="0.2"/>
        <path id="Tracé_151" data-name="Tracé 151" d="M84.094,23V17h2.17a1.759,1.759,0,0,1,1.219.465A1.507,1.507,0,0,1,88,18.634a1.3,1.3,0,0,1-.223.754,1.389,1.389,0,0,1-.591.495v.033a1.529,1.529,0,0,1,.73.519,1.37,1.37,0,0,1,.285.856,1.574,1.574,0,0,1-.541,1.223A1.847,1.847,0,0,1,86.381,23Zm.77-3.428h1.4a.9.9,0,0,0,.7-.289.893.893,0,0,0,.008-1.26.862.862,0,0,0-.674-.286H84.864Zm0,2.691h1.551a.922.922,0,0,0,.721-.311,1,1,0,0,0,.276-.679,1.01,1.01,0,0,0-1.031-.98H84.864Z" fill="#fff" stroke="#fff" stroke-miterlimit="10" stroke-width="0.2"/>
        <path id="Tracé_152" data-name="Tracé 152" d="M89.239,23V17h.771v5.263h2.6V23Z" fill="#fff" stroke="#fff" stroke-miterlimit="10" stroke-width="0.2"/>
        <path id="Tracé_153" data-name="Tracé 153" d="M97.083,17.737H94.351v1.9h2.464v.72H94.351v1.9h2.732V23h-3.5V17h3.5Z" fill="#fff" stroke="#fff" stroke-miterlimit="10" stroke-width="0.2"/>
        <path id="Tracé_154" data-name="Tracé 154" d="M101.742,23.134a2.236,2.236,0,0,1-1.277-.427,1.975,1.975,0,0,1-.818-1.2l.7-.284a1.6,1.6,0,0,0,.514.833,1.3,1.3,0,0,0,.876.339,1.406,1.406,0,0,0,.86-.263.846.846,0,0,0,.355-.717.919.919,0,0,0-.355-.775,3.7,3.7,0,0,0-1.127-.507,2.994,2.994,0,0,1-1.207-.65,1.355,1.355,0,0,1-.412-1.018,1.487,1.487,0,0,1,.512-1.122,1.871,1.871,0,0,1,1.332-.478,1.926,1.926,0,0,1,1.24.381,1.757,1.757,0,0,1,.62.834l-.7.293a1.035,1.035,0,0,0-.373-.528,1.311,1.311,0,0,0-1.525,0,.754.754,0,0,0-.315.615.7.7,0,0,0,.29.566,2.785,2.785,0,0,0,.85.415,7.1,7.1,0,0,1,.742.277,3.356,3.356,0,0,1,.6.356,1.414,1.414,0,0,1,.461.553,1.794,1.794,0,0,1,.155.766,1.655,1.655,0,0,1-.18.78,1.474,1.474,0,0,1-.478.545,2.41,2.41,0,0,1-1.345.41Z" fill="#fff" stroke="#fff" stroke-miterlimit="10" stroke-width="0.2"/>
        <path id="Tracé_155" data-name="Tracé 155" d="M106.937,23.134a2.1,2.1,0,0,1-1.6-.654,2.391,2.391,0,0,1-.615-1.709V17h.77v3.805a1.721,1.721,0,0,0,.373,1.152,1.541,1.541,0,0,0,2.154,0,1.721,1.721,0,0,0,.373-1.152V17h.771v3.771a2.427,2.427,0,0,1-.6,1.713A2.1,2.1,0,0,1,106.937,23.134Z" fill="#fff" stroke="#fff" stroke-miterlimit="10" stroke-width="0.2"/>
        <path id="Tracé_156" data-name="Tracé 156" d="M110.4,23V17h2.045a1.9,1.9,0,0,1,1.32.507,1.726,1.726,0,0,1,.146,2.388,1.774,1.774,0,0,1-1.022.608l-.017.025,1.685,2.439V23h-.913l-1.618-2.43h-.855V23Zm.771-3.151h1.24a1.135,1.135,0,0,0,.792-.3.984.984,0,0,0,.331-.762,1.051,1.051,0,0,0-.293-.72.992.992,0,0,0-.779-.328h-1.291Z" fill="#fff" stroke="#fff" stroke-miterlimit="10" stroke-width="0.2"/>
      </g>
    </g>
  </g>
</svg>
