<svg xmlns="http://www.w3.org/2000/svg" width="33.932" height="33.932" viewBox="0 0 33.932 33.932">
  <g id="Groupe_205" data-name="Groupe 205" transform="translate(0)">
    <ellipse id="Ellipse_32" data-name="Ellipse 32" cx="16.966" cy="16.966" rx="16.966" ry="16.966" transform="translate(0 0)" fill="#ffd735"/>
    <g id="Groupe_202" data-name="Groupe 202" transform="translate(7.02 6.996)">
      <g id="Groupe_201" data-name="Groupe 201" transform="translate(0 0)">
        <path id="Tracé_1508" data-name="Tracé 1508" d="M271.272,68.693a1.166,1.166,0,1,0,1.166,1.166A1.166,1.166,0,0,0,271.272,68.693Z" transform="translate(-256.059 -65.141)" fill="#570083"/>
        <path id="Tracé_1509" data-name="Tracé 1509" d="M267.319,69.982a4.9,4.9,0,1,0,4.9,4.9A4.9,4.9,0,0,0,267.319,69.982Zm0,8.037a3.138,3.138,0,1,1,3.139-3.138A3.141,3.141,0,0,1,267.319,78.019Z" transform="translate(-257.291 -64.934)" fill="#570083"/>
        <path id="Tracé_1510" data-name="Tracé 1510" d="M271.918,85.524h-7.942A5.981,5.981,0,0,1,258,79.55V71.607a5.982,5.982,0,0,1,5.976-5.975h7.942a5.982,5.982,0,0,1,5.976,5.975V79.55A5.981,5.981,0,0,1,271.918,85.524ZM263.976,67.5a4.108,4.108,0,0,0-4.1,4.1V79.55a4.109,4.109,0,0,0,4.1,4.1h7.942a4.109,4.109,0,0,0,4.1-4.1V71.607a4.108,4.108,0,0,0-4.1-4.1Z" transform="translate(-258 -65.632)" fill="#570083"/>
      </g>
    </g>
  </g>
</svg>
