<svg xmlns="http://www.w3.org/2000/svg" width="131.982" height="126.449" viewBox="0 0 131.982 126.449">
  <g id="Groupe_213" data-name="Groupe 213" transform="translate(-122 -2258)">
    <g id="Groupe_46" data-name="Groupe 46" transform="translate(122 2315.51)">
      <path id="Tracé_59" data-name="Tracé 59" d="M-1752.735,352.176v6.193a.562.562,0,0,1-.562.562h-20.657a.563.563,0,0,1-.562-.562V328.93a.563.563,0,0,1,.563-.562h20.27a.563.563,0,0,1,.563.562v6.193a.563.563,0,0,1-.562.562h-11.875a.563.563,0,0,0-.562.563v3.18a.563.563,0,0,0,.563.563h9.981a.563.563,0,0,1,.563.562v5.677a.563.563,0,0,1-.562.562h-9.981a.563.563,0,0,0-.562.563v3.7a.562.562,0,0,0,.563.562h12.263A.562.562,0,0,1-1752.735,352.176Z" transform="translate(1774.517 -328.368)" fill="#ffd735"/>
      <path id="Tracé_60" data-name="Tracé 60" d="M-1603.2,328.368h6.862a.563.563,0,0,1,.531.378l10.2,29.439a.563.563,0,0,1-.532.747h-7.318a.563.563,0,0,1-.537-.4l-1.606-5.191a.563.563,0,0,0-.537-.4h-7.3a.563.563,0,0,0-.539.4l-1.566,5.184a.563.563,0,0,1-.539.4h-7.357a.563.563,0,0,1-.531-.747l10.241-29.438A.563.563,0,0,1-1603.2,328.368Zm6.143,18.984-2.712-9.47-2.841,9.47Z" transform="translate(1645.825 -328.368)" fill="#ffd735"/>
      <path id="Tracé_61" data-name="Tracé 61" d="M-1412.976,335.686h-7.657a.562.562,0,0,0-.562.563v22.121a.563.563,0,0,1-.563.562h-7.269a.562.562,0,0,1-.562-.562V336.249a.562.562,0,0,0-.562-.563h-7.7a.562.562,0,0,1-.562-.562V328.93a.562.562,0,0,1,.563-.562h24.875a.563.563,0,0,1,.563.562v6.193A.563.563,0,0,1-1412.976,335.686Z" transform="translate(1505.051 -328.368)" fill="#ffd735"/>
      <path id="Tracé_62" data-name="Tracé 62" d="M-1252.32,328.715l4.81,11.626a.563.563,0,0,0,1.038,0l4.927-11.635a.563.563,0,0,1,.518-.343h7.83a.562.562,0,0,1,.5.82l-10.061,19.506a.561.561,0,0,0-.063.258v9.417a.562.562,0,0,1-.562.562h-7.226a.562.562,0,0,1-.562-.562v-9.5a.563.563,0,0,0-.062-.255l-9.9-19.423a.562.562,0,0,1,.5-.818h7.789A.563.563,0,0,1-1252.32,328.715Z" transform="translate(1362.965 -328.368)" fill="#ffd735"/>
    </g>
    <path id="Tracé_63" data-name="Tracé 63" d="M-1642.535,545.871h-131.982a25.817,25.817,0,0,0,25.816,25.817h80.349a25.816,25.816,0,0,0,25.816-25.817Z" transform="translate(1896.517 1812.762)" fill="#ffd735"/>
    <path id="Tracé_64" data-name="Tracé 64" d="M-1642.535,83.249h-131.982c0-24.824,29.545-44.951,65.991-44.951S-1642.535,58.424-1642.535,83.249Z" transform="translate(1896.517 2219.702)" fill="#ffd735"/>
  </g>
</svg>
