<svg xmlns="http://www.w3.org/2000/svg" width="259.08" height="285.561" viewBox="0 0 259.08 285.561">
  <g id="Groupe_88" data-name="Groupe 88" transform="translate(-58.46 -105.199)">
    <g id="Groupe_85" data-name="Groupe 85" transform="translate(118 -282)">
      <g id="Groupe_87" data-name="Groupe 87">
        <g id="Groupe_86" data-name="Groupe 86">
          <path id="Tracé_1498" data-name="Tracé 1498" d="M9.44.8V14.06h7.78V15H8.46V.8Zm10.8,4.72H19.4v-5h.92Zm10.5,1.66V15H29.8V13.34a3.717,3.717,0,0,1-1.4,1.29,4.242,4.242,0,0,1-4.07.02,3.736,3.736,0,0,1-1.44-1.44,4.225,4.225,0,0,1-.53-2.13,4.264,4.264,0,0,1,.55-2.21,3.7,3.7,0,0,1,1.52-1.43,4.71,4.71,0,0,1,2.19-.5,3.467,3.467,0,0,1,1.84.54,3.644,3.644,0,0,1,1.34,1.4l.1-1.7Zm-4.18,7.18a3.247,3.247,0,0,0,2.24-.82,2.948,2.948,0,0,0,1-2.1V10.32a3.179,3.179,0,0,0-1.16-1.84,3.258,3.258,0,0,0-2.1-.74,3.327,3.327,0,0,0-1.64.41,3.01,3.01,0,0,0-1.17,1.16,3.416,3.416,0,0,0-.43,1.73,3.255,3.255,0,0,0,.44,1.66,3.34,3.34,0,0,0,1.19,1.21A3.111,3.111,0,0,0,26.56,14.36Zm12.2-7.42a3.865,3.865,0,0,1,2.01.54,3.916,3.916,0,0,1,1.44,1.49,4.257,4.257,0,0,1,.53,2.11,4.14,4.14,0,0,1-.54,2.1,3.78,3.78,0,0,1-1.49,1.46,4.281,4.281,0,0,1-2.09.52,3.987,3.987,0,0,1-1.95-.5,3.851,3.851,0,0,1-1.43-1.32v5.42H34.3V7.12h.84l.06,1.74a4.072,4.072,0,0,1,1.51-1.4A4.2,4.2,0,0,1,38.76,6.94Zm-.3,7.44a3.255,3.255,0,0,0,1.66-.44,3.315,3.315,0,0,0,1.21-1.2,3.2,3.2,0,0,0,.45-1.66,3.352,3.352,0,0,0-.43-1.68,3.218,3.218,0,0,0-2.83-1.64,3.284,3.284,0,0,0-2.77,1.49,3.168,3.168,0,0,0-.51,1.53v.64a3.081,3.081,0,0,0,.51,1.5,3.246,3.246,0,0,0,1.16,1.07A3.167,3.167,0,0,0,38.46,14.38ZM50,6.94a3.865,3.865,0,0,1,2.01.54,3.916,3.916,0,0,1,1.44,1.49,4.257,4.257,0,0,1,.53,2.11,4.14,4.14,0,0,1-.54,2.1,3.78,3.78,0,0,1-1.49,1.46,4.281,4.281,0,0,1-2.09.52,3.987,3.987,0,0,1-1.95-.5,3.851,3.851,0,0,1-1.43-1.32v5.42h-.94V7.12h.84l.06,1.74a4.072,4.072,0,0,1,1.51-1.4A4.2,4.2,0,0,1,50,6.94Zm-.3,7.44a3.255,3.255,0,0,0,1.66-.44,3.315,3.315,0,0,0,1.21-1.2,3.2,3.2,0,0,0,.45-1.66,3.352,3.352,0,0,0-.43-1.68,3.218,3.218,0,0,0-2.83-1.64,3.284,3.284,0,0,0-2.77,1.49,3.168,3.168,0,0,0-.51,1.53v.64a3.081,3.081,0,0,0,.51,1.5,3.246,3.246,0,0,0,1.16,1.07A3.167,3.167,0,0,0,49.7,14.38ZM57.72-.2V15h-.94V-.2Zm4.5,7.38V15h-.94V7.18ZM61.08,4.3a.609.609,0,0,1,.21-.47.707.707,0,0,1,.49-.19.672.672,0,0,1,.48.19.622.622,0,0,1,.2.47.646.646,0,0,1-.2.49.672.672,0,0,1-.48.19.688.688,0,0,1-.49-.2A.639.639,0,0,1,61.08,4.3Zm10.74,9.94a4.019,4.019,0,0,1-1.23.68,4.43,4.43,0,0,1-3.54-.29,3.871,3.871,0,0,1-1.49-1.46,4.085,4.085,0,0,1-.54-2.09,4.028,4.028,0,0,1,.55-2.09,3.965,3.965,0,0,1,1.49-1.46A4.084,4.084,0,0,1,69.1,7a4.175,4.175,0,0,1,2.74.92l-.5.64a3.47,3.47,0,0,0-2.18-.78,3.06,3.06,0,0,0-1.61.44,3.234,3.234,0,0,0-1.16,1.2,3.314,3.314,0,0,0-.43,1.66,3.259,3.259,0,0,0,.43,1.65,3.236,3.236,0,0,0,2.85,1.63,3.374,3.374,0,0,0,2.06-.7ZM82.06,7.18V15h-.94V13.34a3.717,3.717,0,0,1-1.4,1.29,4.242,4.242,0,0,1-4.07.02,3.736,3.736,0,0,1-1.44-1.44,4.225,4.225,0,0,1-.53-2.13,4.264,4.264,0,0,1,.55-2.21,3.7,3.7,0,0,1,1.52-1.43,4.71,4.71,0,0,1,2.19-.5,3.467,3.467,0,0,1,1.84.54,3.644,3.644,0,0,1,1.34,1.4l.1-1.7Zm-4.18,7.18a3.247,3.247,0,0,0,2.24-.82,2.948,2.948,0,0,0,1-2.1V10.32a3.179,3.179,0,0,0-1.16-1.84,3.258,3.258,0,0,0-2.1-.74,3.327,3.327,0,0,0-1.64.41,3.01,3.01,0,0,0-1.17,1.16,3.416,3.416,0,0,0-.43,1.73,3.255,3.255,0,0,0,.44,1.66,3.34,3.34,0,0,0,1.19,1.21A3.111,3.111,0,0,0,77.88,14.36ZM87.36,3.74V7.28h2.42v.76H87.36V15H86.4V8.04H84.74V7.28H86.4V3.74Zm5.7,3.44V15h-.94V7.18ZM91.92,4.3a.609.609,0,0,1,.21-.47.707.707,0,0,1,.49-.19.672.672,0,0,1,.48.19.622.622,0,0,1,.2.47.646.646,0,0,1-.2.49.672.672,0,0,1-.48.19.688.688,0,0,1-.49-.2A.639.639,0,0,1,91.92,4.3Zm3.94,6.74a4.083,4.083,0,0,1,2.06-3.57,4.361,4.361,0,0,1,4.24,0,3.953,3.953,0,0,1,1.5,1.5,4.117,4.117,0,0,1,.54,2.07,4.07,4.07,0,0,1-2.05,3.57,4.173,4.173,0,0,1-2.13.55,4.3,4.3,0,0,1-2.13-.53,3.85,3.85,0,0,1-1.49-1.47A4.179,4.179,0,0,1,95.86,11.04Zm.94.02a3.314,3.314,0,0,0,.43,1.66,3.209,3.209,0,0,0,1.17,1.2,3.2,3.2,0,0,0,3.24,0,3.209,3.209,0,0,0,1.17-1.2,3.314,3.314,0,0,0,.43-1.66,3.369,3.369,0,0,0-.43-1.67,3.189,3.189,0,0,0-1.17-1.21,3.112,3.112,0,0,0-1.62-.44,3,3,0,0,0-1.64.47,3.364,3.364,0,0,0-1.16,1.23A3.3,3.3,0,0,0,96.8,11.06Zm14.4-4.1a2.442,2.442,0,0,1,1.76.65,2.366,2.366,0,0,1,.72,1.69V15h-.96V9.56a1.933,1.933,0,0,0-.5-1.27,1.783,1.783,0,0,0-1.32-.51,2.912,2.912,0,0,0-2.55,1.45,3.014,3.014,0,0,0-.41,1.57V15H107V7.18h.82l.08,1.74a2.97,2.97,0,0,1,1.29-1.43A3.921,3.921,0,0,1,111.2,6.96Zm19.86.16V18.76h-.94V13.34a3.613,3.613,0,0,1-1.46,1.32,4.477,4.477,0,0,1-2.1.5,3.831,3.831,0,0,1-1.98-.53,3.9,3.9,0,0,1-1.43-1.46,4.146,4.146,0,0,1-.53-2.09,4.119,4.119,0,0,1,.55-2.12,3.975,3.975,0,0,1,1.51-1.48,4.25,4.25,0,0,1,2.12-.54,3.879,3.879,0,0,1,1.88.49,3.793,3.793,0,0,1,1.42,1.31V7.12Zm-.96,3.66a3.228,3.228,0,0,0-.5-1.53,3.17,3.17,0,0,0-1.17-1.09,3.3,3.3,0,0,0-1.61-.4,3.165,3.165,0,0,0-1.63.44,3.333,3.333,0,0,0,0,5.74,3.165,3.165,0,0,0,1.63.44,3.264,3.264,0,0,0,1.58-.39,3.377,3.377,0,0,0,1.18-1.05,2.912,2.912,0,0,0,.52-1.48Zm11.14-3.6V15h-.84l-.06-1.66a3.044,3.044,0,0,1-1.3,1.35,3.864,3.864,0,0,1-1.96.53,2.327,2.327,0,0,1-2.46-2.34V7.18h.94V12.6a1.919,1.919,0,0,0,.5,1.28,1.9,1.9,0,0,0,1.34.52,2.744,2.744,0,0,0,1.43-.4,2.974,2.974,0,0,0,1.07-1.1,3.088,3.088,0,0,0,.4-1.56V7.18Zm4.5,0V15h-.94V7.18ZM144.6,4.3a.609.609,0,0,1,.21-.47.707.707,0,0,1,.49-.19.672.672,0,0,1,.48.19.622.622,0,0,1,.2.47.646.646,0,0,1-.2.49.672.672,0,0,1-.48.19.688.688,0,0,1-.49-.2A.639.639,0,0,1,144.6,4.3Zm17.58,2.88L158.3,15.3h-.12l-3.96-8.12h1.1l2.96,6.44,2.86-6.44Zm1.48,3.86a4.083,4.083,0,0,1,2.06-3.57,4.361,4.361,0,0,1,4.24,0,3.953,3.953,0,0,1,1.5,1.5,4.117,4.117,0,0,1,.54,2.07,4.07,4.07,0,0,1-2.05,3.57,4.173,4.173,0,0,1-2.13.55,4.3,4.3,0,0,1-2.13-.53,3.85,3.85,0,0,1-1.49-1.47A4.179,4.179,0,0,1,163.66,11.04Zm.94.02a3.314,3.314,0,0,0,.43,1.66,3.209,3.209,0,0,0,1.17,1.2,3.2,3.2,0,0,0,3.24,0,3.209,3.209,0,0,0,1.17-1.2,3.314,3.314,0,0,0,.43-1.66,3.369,3.369,0,0,0-.43-1.67,3.189,3.189,0,0,0-1.17-1.21,3.112,3.112,0,0,0-1.62-.44,3,3,0,0,0-1.64.47,3.364,3.364,0,0,0-1.16,1.23A3.3,3.3,0,0,0,164.6,11.06Zm16.82-3.88V15h-.84l-.06-1.66a3.044,3.044,0,0,1-1.3,1.35,3.864,3.864,0,0,1-1.96.53,2.327,2.327,0,0,1-2.46-2.34V7.18h.94V12.6a1.919,1.919,0,0,0,.5,1.28,1.9,1.9,0,0,0,1.34.52,2.744,2.744,0,0,0,1.43-.4,2.974,2.974,0,0,0,1.07-1.1,3.088,3.088,0,0,0,.4-1.56V7.18Zm5.4,7.98a4.242,4.242,0,0,1-1.47-.26,2.6,2.6,0,0,1-1.15-.8l.44-.62a3,3,0,0,0,.96.67,2.816,2.816,0,0,0,1.16.25,2.24,2.24,0,0,0,1.28-.35,1.221,1.221,0,0,0,.52-1.09,1.191,1.191,0,0,0-.28-.83,1.78,1.78,0,0,0-.64-.46q-.36-.15-1.16-.41a3.867,3.867,0,0,1-1.45-.81,1.732,1.732,0,0,1-.51-1.31,1.966,1.966,0,0,1,.67-1.55A2.492,2.492,0,0,1,186.9,7a3.2,3.2,0,0,1,2.34.88l-.42.66a1.693,1.693,0,0,0-.79-.58,3.231,3.231,0,0,0-.99-.2,1.908,1.908,0,0,0-1.09.33,1.058,1.058,0,0,0-.49.93,1.063,1.063,0,0,0,.44.93,5.779,5.779,0,0,0,1.34.63,5.631,5.631,0,0,1,1.68.81,1.626,1.626,0,0,1,.58,1.37,2.3,2.3,0,0,1-.69,1.74A2.768,2.768,0,0,1,186.82,15.16ZM206.16-.2V15h-.96V13.38a3.941,3.941,0,0,1-1.48,1.29,4.347,4.347,0,0,1-2.04.49,3.921,3.921,0,0,1-2.01-.53,3.771,3.771,0,0,1-1.43-1.48,4.321,4.321,0,0,1-.52-2.11,4.258,4.258,0,0,1,.54-2.16,3.7,3.7,0,0,1,1.46-1.44,4.243,4.243,0,0,1,2.06-.5,4.178,4.178,0,0,1,1.97.5,3.778,3.778,0,0,1,1.47,1.32V-.2Zm-4.24,14.54a3.228,3.228,0,0,0,2.26-.84,3.093,3.093,0,0,0,1.02-2.12v-1a3.167,3.167,0,0,0-1.15-1.9,3.384,3.384,0,0,0-3.77-.34,3.154,3.154,0,0,0-1.18,1.17,3.316,3.316,0,0,0-.44,1.71,3.255,3.255,0,0,0,.44,1.66,3.34,3.34,0,0,0,1.19,1.21A3.111,3.111,0,0,0,201.92,14.34Zm8.74-7.16V15h-.94V7.18ZM209.52,4.3a.609.609,0,0,1,.21-.47.707.707,0,0,1,.49-.19.672.672,0,0,1,.48.19.622.622,0,0,1,.2.47.646.646,0,0,1-.2.49.672.672,0,0,1-.48.19.688.688,0,0,1-.49-.2A.639.639,0,0,1,209.52,4.3Zm6.44-.56V7.28h2.42v.76h-2.42V15H215V8.04h-1.66V7.28H215V3.74Zm12.64,0V7.28h2.42v.76H228.6V15h-.96V8.04h-1.66V7.28h1.66V3.74Zm4,7.3a4.083,4.083,0,0,1,2.06-3.57,4.361,4.361,0,0,1,4.24,0,3.953,3.953,0,0,1,1.5,1.5,4.117,4.117,0,0,1,.54,2.07,4.07,4.07,0,0,1-2.05,3.57,4.173,4.173,0,0,1-2.13.55,4.3,4.3,0,0,1-2.13-.53,3.85,3.85,0,0,1-1.49-1.47A4.179,4.179,0,0,1,232.6,11.04Zm.94.02a3.314,3.314,0,0,0,.43,1.66,3.209,3.209,0,0,0,1.17,1.2,3.2,3.2,0,0,0,3.24,0,3.209,3.209,0,0,0,1.17-1.2,3.314,3.314,0,0,0,.43-1.66,3.369,3.369,0,0,0-.43-1.67,3.189,3.189,0,0,0-1.17-1.21,3.112,3.112,0,0,0-1.62-.44,3,3,0,0,0-1.64.47,3.364,3.364,0,0,0-1.16,1.23A3.3,3.3,0,0,0,233.54,11.06Zm16.82-3.88V15h-.84l-.06-1.66a3.044,3.044,0,0,1-1.3,1.35,3.864,3.864,0,0,1-1.96.53,2.327,2.327,0,0,1-2.46-2.34V7.18h.94V12.6a1.919,1.919,0,0,0,.5,1.28,1.9,1.9,0,0,0,1.34.52,2.744,2.744,0,0,0,1.43-.4,2.974,2.974,0,0,0,1.07-1.1,3.088,3.088,0,0,0,.4-1.56V7.18Zm5.3-3.44V7.28h2.42v.76h-2.42V15h-.96V8.04h-1.66V7.28h1.66V3.74ZM267.2-.08V11.5h-.86V-.08Zm-.4,14.64a.773.773,0,0,1-.54-.2.67.67,0,0,1-.22-.52.657.657,0,0,1,.22-.49.752.752,0,0,1,.54-.21.718.718,0,0,1,.53.21.672.672,0,0,1,.21.49.686.686,0,0,1-.21.52A.738.738,0,0,1,266.8,14.56Z" transform="translate(-68 654)" fill="#570083"/>
          <g id="Groupe_84" data-name="Groupe 84" transform="translate(1735.931 348.901)">
            <g id="Groupe_46" data-name="Groupe 46" transform="translate(-1774.517 132.921)">
              <path id="Tracé_59" data-name="Tracé 59" d="M-1738.678,367.54v10.19a.925.925,0,0,1-.926.925h-33.987a.926.926,0,0,1-.926-.925V329.293a.926.926,0,0,1,.926-.925h33.35a.925.925,0,0,1,.925.925v10.19a.926.926,0,0,1-.925.925h-19.539a.926.926,0,0,0-.925.926v5.232a.926.926,0,0,0,.925.925h16.423a.925.925,0,0,1,.925.925v9.34a.926.926,0,0,1-.925.925h-16.423a.926.926,0,0,0-.925.925v6.082a.926.926,0,0,0,.925.925h20.176A.925.925,0,0,1-1738.678,367.54Z" transform="translate(1774.517 -328.368)" fill="#570083"/>
              <path id="Tracé_60" data-name="Tracé 60" d="M-1596.224,328.368h11.291a.926.926,0,0,1,.875.622l16.782,48.437a.926.926,0,0,1-.875,1.228h-12.041a.926.926,0,0,1-.884-.652l-2.642-8.541a.926.926,0,0,0-.884-.652h-12.016a.926.926,0,0,0-.886.658l-2.577,8.529a.926.926,0,0,1-.886.658h-12.1a.926.926,0,0,1-.875-1.23l16.85-48.436A.926.926,0,0,1-1596.224,328.368Zm10.108,31.235-4.462-15.582-4.675,15.582Z" transform="translate(1666.363 -328.368)" fill="#570083"/>
              <path id="Tracé_61" data-name="Tracé 61" d="M-1396.56,340.409h-12.6a.925.925,0,0,0-.925.926v36.4a.926.926,0,0,1-.926.925h-11.96a.925.925,0,0,1-.925-.925v-36.4a.925.925,0,0,0-.925-.926h-12.669a.925.925,0,0,1-.925-.925v-10.19a.925.925,0,0,1,.925-.925h40.929a.926.926,0,0,1,.926.925v10.19A.926.926,0,0,1-1396.56,340.409Z" transform="translate(1548.054 -328.368)" fill="#570083"/>
              <path id="Tracé_62" data-name="Tracé 62" d="M-1246.595,328.94l7.913,19.129a.926.926,0,0,0,1.708.007l8.106-19.143a.926.926,0,0,1,.852-.565h12.883a.925.925,0,0,1,.823,1.35l-16.553,32.093a.923.923,0,0,0-.1.424V377.73a.925.925,0,0,1-.926.925h-11.889a.925.925,0,0,1-.926-.925V362.092a.928.928,0,0,0-.1-.42l-16.282-31.958a.925.925,0,0,1,.824-1.346h12.816A.926.926,0,0,1-1246.595,328.94Z" transform="translate(1428.643 -328.368)" fill="#570083"/>
            </g>
            <path id="Tracé_63" data-name="Tracé 63" d="M-1557.362,545.871h-217.155a42.477,42.477,0,0,0,42.477,42.477h132.2a42.477,42.477,0,0,0,42.477-42.477Z" transform="translate(0 -341.998)" fill="#570083"/>
            <path id="Tracé_64" data-name="Tracé 64" d="M-1557.361,112.257h-217.155c0-40.845,48.611-73.959,108.578-73.959S-1557.361,71.412-1557.361,112.257Z" transform="translate(0 0)" fill="#570083"/>
          </g>
        </g>
      </g>
    </g>
  </g>
</svg>
