<svg id="Groupe_207" data-name="Groupe 207" xmlns="http://www.w3.org/2000/svg" width="33.932" height="33.933" viewBox="0 0 33.932 33.933">
  <ellipse id="Ellipse_34" data-name="Ellipse 34" cx="16.966" cy="16.966" rx="16.966" ry="16.966" transform="translate(0 0)" fill="#ffd735"/>
  <path id="Tracé_1513" data-name="Tracé 1513" d="M361.631,73.726c-.174.017-.348.026-.522.027a5.669,5.669,0,0,1-4.744-2.563v8.729a6.452,6.452,0,1,1-6.453-6.452h0c.135,0,.267.012.4.02v3.181a3.252,3.252,0,0,0-.4-.041,3.293,3.293,0,0,0,0,6.586,3.373,3.373,0,0,0,3.425-3.253l.033-14.826h3.041a5.666,5.666,0,0,0,5.222,5.058v3.533" transform="translate(-335.854 -58.716)" fill="#570083"/>
</svg>
