<svg xmlns="http://www.w3.org/2000/svg" width="33.933" height="33.933" viewBox="0 0 33.933 33.933">
  <g id="Groupe_206" data-name="Groupe 206" transform="translate(0)">
    <g id="Groupe_200" data-name="Groupe 200" transform="translate(0 0)">
      <ellipse id="Ellipse_33" data-name="Ellipse 33" cx="16.966" cy="16.966" rx="16.966" ry="16.966" transform="translate(0 0)" fill="#ffd735"/>
      <path id="Tracé_1507" data-name="Tracé 1507" d="M319.682,69.466A7.671,7.671,0,0,1,317.81,70c.3-.05.743-.6.92-.816a3.443,3.443,0,0,0,.621-1.133c.016-.032.028-.073,0-.1a.107.107,0,0,0-.1.008,9.558,9.558,0,0,1-2.219.849.148.148,0,0,1-.153-.041,1.75,1.75,0,0,0-.194-.2,3.925,3.925,0,0,0-1.074-.658,3.743,3.743,0,0,0-1.649-.266,3.934,3.934,0,0,0-1.564.442,4.025,4.025,0,0,0-1.261,1.03,3.867,3.867,0,0,0-.753,1.508,4.069,4.069,0,0,0-.039,1.593c.012.089,0,.1-.077.089a11.856,11.856,0,0,1-7.625-3.88c-.088-.1-.137-.1-.21.007a3.867,3.867,0,0,0,.659,4.568c.15.142.3.283.469.412a3.885,3.885,0,0,1-1.471-.412c-.089-.057-.133-.024-.142.077a2.349,2.349,0,0,0,.024.436,3.909,3.909,0,0,0,2.409,3.117,2.254,2.254,0,0,0,.49.15,4.357,4.357,0,0,1-1.444.044c-.106-.02-.145.032-.106.133A4.061,4.061,0,0,0,306.35,79.5c.137.024.275.024.413.057-.008.012-.017.012-.024.024a4.8,4.8,0,0,1-2.071,1.1,7.407,7.407,0,0,1-3.143.4c-.169-.024-.205-.023-.251,0s-.006.07.049.113c.214.142.432.267.654.389a10.406,10.406,0,0,0,2.1.841,11.2,11.2,0,0,0,10.869-2.541,11.41,11.41,0,0,0,3.008-8.321c0-.12.142-.186.225-.248a7.385,7.385,0,0,0,1.479-1.539.472.472,0,0,0,.1-.295v-.016C319.757,69.417,319.756,69.433,319.682,69.466Z" transform="translate(-293.341 -58.314)" fill="#570083"/>
    </g>
  </g>
</svg>
